<?xml version="1.0" standalone="no"?><!DOCTYPE svg PUBLIC "-//W3C//DTD SVG 1.1//EN" "http://www.w3.org/Graphics/SVG/1.1/DTD/svg11.dtd"><svg height="1024" node-id="1" sillyvg="true" template-height="1024" template-width="1024" version="1.1" viewBox="0 0 1024 1024" width="1024" xmlns="http://www.w3.org/2000/svg" xmlns:xlink="http://www.w3.org/1999/xlink"><defs node-id="22"></defs><g node-id="24"><path d="M 914.08 708.00 C 914.08 742.34 871.74 775.28 796.37 799.57 C 721.00 823.85 618.78 837.50 512.19 837.50 C 405.61 837.50 303.39 823.85 228.02 799.57 C 152.65 775.28 110.31 742.34 110.31 708.00 C 110.31 673.65 152.65 640.71 228.02 616.43 C 303.39 592.14 405.61 578.50 512.19 578.50 C 618.78 578.50 721.00 592.14 796.37 616.43 C 871.74 640.71 914.08 673.65 914.08 708.00 Z" fill="#f2f4ff" fill-rule="evenodd" group-id="1" id="椭圆形备份-3" node-id="6" stroke="none" target-height="259" target-width="803.7739" target-x="110.30795" target-y="578.49554"></path><path d="M 350.00 676.00 L 299.00 676.00 L 299.00 541.00 L 162.00 541.00 C 154.27 541.00 148.00 534.73 148.00 527.00 L 148.00 348.00 L 199.00 348.00 L 199.00 490.00 L 299.00 490.00 L 299.00 348.00 L 350.00 348.00 L 350.00 676.00 Z" fill="#ffffff" fill-rule="evenodd" group-id="1" id="形状结合备份-2" node-id="7" stroke="none" target-height="328" target-width="202" target-x="148" target-y="348"></path><path d="M 202.00 345.00 L 202.00 487.00 L 296.00 487.00 L 296.00 345.00 L 353.00 345.00 L 353.00 679.00 L 296.00 679.00 L 296.00 544.00 L 162.00 544.00 C 152.72 544.00 145.18 536.56 145.00 527.32 L 145.00 527.00 L 145.00 345.00 L 202.00 345.00 Z M 196.00 351.00 L 151.00 351.00 L 151.00 527.00 C 151.00 532.98 155.77 537.84 161.71 538.00 L 162.00 538.00 L 302.00 538.00 L 302.00 673.00 L 347.00 673.00 L 347.00 351.00 L 302.00 351.00 L 302.00 493.00 L 196.00 493.00 L 196.00 351.00 Z" fill="#000000" fill-rule="nonzero" group-id="1" id="形状结合备份-2" node-id="8" stroke="none" target-height="334" target-width="208" target-x="145" target-y="345"></path><g node-id="25"><path d="M 559.07 454.69 L 559.07 505.69 L 421.00 578.00 L 421.00 527.00 Z" fill="#0076fc" fill-rule="evenodd" group-id="1,2" id="矩形备份-11" node-id="9" stroke="none" target-height="123.31143" target-width="138.07068" target-x="421.00006" target-y="454.68857"></path></g><g node-id="26"><path d="M 562.07 507.50 L 560.46 508.35 L 422.39 580.66 L 418.00 582.96 L 418.00 525.18 L 419.61 524.34 L 557.68 452.03 L 562.07 449.73 L 562.07 507.50 Z M 556.07 503.87 L 556.07 459.65 L 424.00 528.81 L 424.00 573.04 L 556.07 503.87 Z" fill="#000000" fill-rule="nonzero" group-id="1,3" id="矩形备份-11" node-id="10" stroke="none" target-height="133.22678" target-width="144.07077" target-x="418.00003" target-y="449.73087"></path></g><path d="M 547.00 676.00 L 447.00 676.00 L 396.00 676.00 L 396.00 348.00 L 598.00 348.00 L 598.00 676.00 L 547.00 676.00 Z M 447.00 399.00 L 447.00 625.00 L 547.00 625.00 L 547.00 399.00 L 447.00 399.00 Z" fill="#ffffff" fill-rule="evenodd" group-id="1" id="形状结合备份-3" node-id="11" stroke="none" target-height="328" target-width="202" target-x="396" target-y="348"></path><path d="M 601.00 345.00 L 601.00 679.00 L 547.00 679.00 L 447.00 679.00 L 396.00 679.00 L 393.00 679.00 L 393.00 345.00 L 601.00 345.00 Z M 595.00 673.00 L 595.00 351.00 L 399.00 351.00 L 399.00 673.00 L 447.00 673.00 L 547.00 673.00 L 595.00 673.00 Z M 444.00 396.00 L 447.00 396.00 L 547.00 396.00 L 550.00 396.00 L 550.00 628.00 L 547.00 628.00 L 447.00 628.00 L 444.00 628.00 L 444.00 396.00 Z M 450.00 402.00 L 450.00 622.00 L 544.00 622.00 L 544.00 402.00 L 450.00 402.00 Z" fill="#000000" fill-rule="nonzero" group-id="1" id="形状结合备份-3" node-id="12" stroke="none" target-height="334.00012" target-width="208" target-x="393" target-y="345"></path><path d="M 522.63 776.21 C 522.63 779.57 521.29 782.79 518.92 785.17 C 516.54 787.55 513.32 788.88 509.96 788.88 C 506.60 788.88 503.37 787.55 501.00 785.17 C 498.62 782.79 497.29 779.57 497.29 776.21 C 497.29 772.85 498.62 769.63 501.00 767.25 C 503.37 764.88 506.60 763.54 509.96 763.54 C 513.32 763.54 516.54 764.88 518.92 767.25 C 521.29 769.63 522.63 772.85 522.63 776.21 Z" fill="#ffffff" fill-rule="evenodd" group-id="1" id="椭圆形备份-6" node-id="13" stroke="none" target-height="25.33899" target-width="25.33905" target-x="497.28815" target-y="763.54236"></path><path d="M 834.00 348.00 C 841.73 348.00 848.00 354.27 848.00 362.00 L 848.00 662.00 C 848.00 669.73 841.73 676.00 834.00 676.00 L 646.00 676.00 L 646.00 625.00 L 797.00 625.00 L 797.00 541.00 L 646.00 541.00 L 646.00 490.00 L 797.00 490.00 L 797.00 399.00 L 646.00 399.00 L 646.00 348.00 L 834.00 348.00 Z" fill="#ffffff" fill-rule="evenodd" group-id="1" id="形状结合" node-id="14" stroke="none" target-height="328" target-width="202" target-x="646" target-y="348"></path><path d="M 646.00 345.00 L 834.00 345.00 C 843.39 345.00 851.00 352.61 851.00 362.00 L 851.00 662.00 C 851.00 671.39 843.39 679.00 834.00 679.00 L 643.00 679.00 L 643.00 622.00 L 646.00 622.00 L 794.00 622.00 L 794.00 544.00 L 643.00 544.00 L 643.00 487.00 L 794.00 487.00 L 794.00 402.00 L 646.00 402.00 L 643.00 402.00 L 643.00 345.00 L 646.00 345.00 Z M 649.00 351.00 L 649.00 396.00 L 797.00 396.00 L 800.00 396.00 L 800.00 493.00 L 649.00 493.00 L 649.00 538.00 L 800.00 538.00 L 800.00 628.00 L 797.00 628.00 L 649.00 628.00 L 649.00 673.00 L 834.00 673.00 C 839.98 673.00 844.84 668.23 845.00 662.29 L 845.00 662.00 L 845.00 362.00 C 845.00 355.92 840.08 351.00 834.00 351.00 L 649.00 351.00 Z" fill="#000000" fill-rule="nonzero" group-id="1" id="形状结合" node-id="15" stroke="none" target-height="334" target-width="208" target-x="643" target-y="345"></path><path d="M 876.00 246.00 C 876.00 253.73 869.73 260.00 862.00 260.00 C 854.27 260.00 848.00 253.73 848.00 246.00 C 848.00 238.27 854.27 232.00 862.00 232.00 C 869.73 232.00 876.00 238.27 876.00 246.00 Z" fill="#0076fc" fill-rule="evenodd" group-id="1" id="椭圆形备份" node-id="16" stroke="none" target-height="28" target-width="28" target-x="848" target-y="232"></path><path d="M 862.00 232.00 C 869.73 232.00 876.00 238.27 876.00 246.00 C 876.00 253.73 869.73 260.00 862.00 260.00 C 854.27 260.00 848.00 253.73 848.00 246.00 C 848.00 238.27 854.27 232.00 862.00 232.00 Z M 862.00 233.00 C 854.82 233.00 849.00 238.82 849.00 246.00 C 849.00 253.18 854.82 259.00 862.00 259.00 C 869.18 259.00 875.00 253.18 875.00 246.00 C 875.00 238.82 869.18 233.00 862.00 233.00 Z" fill="#0076fc" fill-rule="nonzero" group-id="1" id="椭圆形备份" node-id="17" stroke="none" target-height="28" target-width="28" target-x="848" target-y="232"></path><path d="M 391.50 198.00 C 398.40 198.00 404.00 203.60 404.00 210.50 C 404.00 217.40 398.40 223.00 391.50 223.00 C 384.60 223.00 379.00 217.40 379.00 210.50 C 379.00 203.60 384.60 198.00 391.50 198.00 Z M 391.50 201.00 C 386.25 201.00 382.00 205.25 382.00 210.50 C 382.00 215.75 386.25 220.00 391.50 220.00 C 396.75 220.00 401.00 215.75 401.00 210.50 C 401.00 205.25 396.75 201.00 391.50 201.00 Z" fill="#000000" fill-rule="nonzero" group-id="1" id="椭圆形备份" node-id="18" stroke="none" target-height="25" target-width="25" target-x="379" target-y="198"></path><path d="M 82.50 598.00 C 84.99 598.00 87.00 600.01 87.00 602.50 L 87.00 612.00 L 95.50 612.00 C 97.99 612.00 100.00 614.01 100.00 616.50 C 100.00 618.99 97.99 621.00 95.50 621.00 L 87.00 621.00 L 87.00 629.50 C 87.00 631.99 84.99 634.00 82.50 634.00 C 80.01 634.00 78.00 631.99 78.00 629.50 L 78.00 621.00 L 68.50 621.00 C 66.01 621.00 64.00 618.99 64.00 616.50 C 64.00 614.01 66.01 612.00 68.50 612.00 L 78.00 612.00 L 78.00 602.50 C 78.00 600.01 80.01 598.00 82.50 598.00 Z" fill="#0076fc" fill-rule="evenodd" group-id="1" id="形状结合备份-2" node-id="19" stroke="none" target-height="36" target-width="36" target-x="64" target-y="598"></path><path d="M 82.50 598.00 C 84.99 598.00 87.00 600.01 87.00 602.50 L 87.00 612.00 L 95.50 612.00 C 97.99 612.00 100.00 614.01 100.00 616.50 C 100.00 618.99 97.99 621.00 95.50 621.00 L 87.00 621.00 L 87.00 629.50 C 87.00 631.99 84.99 634.00 82.50 634.00 C 80.01 634.00 78.00 631.99 78.00 629.50 L 78.00 621.00 L 68.50 621.00 C 66.01 621.00 64.00 618.99 64.00 616.50 C 64.00 614.01 66.01 612.00 68.50 612.00 L 78.00 612.00 L 78.00 602.50 C 78.00 600.01 80.01 598.00 82.50 598.00 Z M 82.50 600.25 C 81.26 600.25 80.25 601.26 80.25 602.50 L 80.25 614.25 L 68.50 614.25 C 67.26 614.25 66.25 615.26 66.25 616.50 C 66.25 617.74 67.26 618.75 68.50 618.75 L 80.25 618.75 L 80.25 629.50 C 80.25 630.74 81.26 631.75 82.50 631.75 C 83.74 631.75 84.75 630.74 84.75 629.50 L 84.75 618.75 L 95.50 618.75 C 96.74 618.75 97.75 617.74 97.75 616.50 C 97.75 615.26 96.74 614.25 95.50 614.25 L 84.75 614.25 L 84.75 602.50 C 84.75 601.26 83.74 600.25 82.50 600.25 Z" fill="#0076fc" fill-rule="nonzero" group-id="1" id="形状结合备份-2" node-id="20" stroke="none" target-height="36" target-width="36" target-x="64" target-y="598"></path></g></svg>