<?xml version="1.0" standalone="no"?><!DOCTYPE svg PUBLIC "-//W3C//DTD SVG 1.1//EN" "http://www.w3.org/Graphics/SVG/1.1/DTD/svg11.dtd"><svg height="1024" node-id="1" sillyvg="true" template-height="1024" template-width="1024" version="1.1" viewBox="0 0 1024 1024" width="1024" xmlns="http://www.w3.org/2000/svg" xmlns:xlink="http://www.w3.org/1999/xlink"><defs node-id="20"></defs><g node-id="22"><path d="M 913.50 797.50 C 913.50 831.86 871.20 864.81 795.90 889.10 C 720.61 913.40 618.48 927.04 512.00 927.04 C 405.52 927.04 303.39 913.40 228.10 889.10 C 152.80 864.81 110.50 831.86 110.50 797.50 C 110.50 763.14 152.80 730.19 228.10 705.90 C 303.39 681.60 405.52 667.96 512.00 667.96 C 618.48 667.96 720.61 681.60 795.90 705.90 C 871.20 730.19 913.50 763.14 913.50 797.50 Z" fill="#f2f4ff" fill-rule="evenodd" group-id="1" id="椭圆形备份-4" node-id="6" stroke="none" target-height="259.08765" target-width="803" target-x="110.49999" target-y="667.9562"></path><path d="M 794.00 733.00 C 794.00 739.08 789.08 744.00 783.00 744.00 C 776.92 744.00 772.00 739.08 772.00 733.00 C 772.00 726.92 776.92 722.00 783.00 722.00 C 789.08 722.00 794.00 726.92 794.00 733.00 Z" fill="#ffffff" fill-rule="evenodd" group-id="1" id="椭圆形" node-id="7" stroke="none" target-height="22" target-width="22" target-x="772" target-y="722"></path><path d="M 713.00 245.00 C 713.00 283.66 744.34 315.00 783.00 315.00 L 783.00 596.77 C 762.99 652.71 734.21 701.03 699.32 737.40 C 646.30 786.01 575.59 813.52 487.21 819.94 L 465.16 814.43 C 435.16 797.49 407.07 775.77 380.89 749.27 C 333.79 701.59 299.04 627.47 281.00 544.09 L 281.00 315.00 C 319.66 315.00 351.00 283.66 351.00 245.00 L 713.00 245.00 Z" fill="#0076fc" fill-rule="evenodd" group-id="1" id="形状结合" node-id="8" stroke="none" target-height="574.9376" target-width="502.00476" target-x="280.99658" target-y="245"></path><path d="M 713.00 245.00 C 713.00 283.66 744.34 315.00 783.00 315.00 L 783.00 596.77 C 762.99 652.71 734.21 701.03 699.32 737.40 C 646.30 786.01 575.59 813.52 487.21 819.94 L 465.16 814.43 C 435.16 797.49 407.07 775.77 380.89 749.27 C 333.79 701.59 299.04 627.47 281.00 544.09 L 281.00 315.00 C 319.66 315.00 351.00 283.66 351.00 245.00 L 713.00 245.00 Z M 707.23 251.00 L 356.76 251.00 L 356.75 251.23 C 353.74 288.24 324.24 317.74 287.23 320.75 L 287.00 320.76 L 287.00 543.44 L 287.41 545.34 C 305.59 627.61 339.66 698.25 383.81 743.67 L 385.16 745.05 C 410.54 770.75 437.72 791.86 466.69 808.40 L 467.42 808.81 L 487.72 813.88 L 489.38 813.76 C 574.40 807.15 642.43 780.68 693.70 734.40 L 695.13 733.10 L 696.02 732.17 C 729.52 696.88 757.27 650.27 776.76 596.40 L 777.00 595.72 L 777.00 320.76 L 776.77 320.75 C 739.76 317.74 710.26 288.24 707.25 251.23 L 707.23 251.00 Z" fill="#000000" fill-rule="nonzero" group-id="1" id="形状结合" node-id="9" stroke="none" target-height="574.9376" target-width="502.00476" target-x="280.99658" target-y="245"></path><path d="M 672.00 245.00 C 672.00 283.66 703.34 315.00 742.00 315.00 L 742.00 582.23 C 722.43 649.84 690.53 707.86 649.32 747.40 C 616.74 778.65 564.46 803.19 492.50 821.00 C 416.32 801.77 363.50 777.23 334.02 747.40 C 292.99 705.86 260.29 648.23 240.00 581.27 L 240.00 315.00 C 278.66 315.00 310.00 283.66 310.00 245.00 L 672.00 245.00 Z" fill="#ffffff" fill-rule="evenodd" group-id="1" id="形状结合备份" node-id="10" stroke="none" target-height="576" target-width="502.00436" target-x="239.9971" target-y="245"></path><path d="M 672.00 245.00 C 672.00 283.66 703.34 315.00 742.00 315.00 L 742.00 582.23 C 722.43 649.84 690.53 707.86 649.32 747.40 C 616.74 778.65 564.46 803.19 492.50 821.00 C 416.32 801.77 363.50 777.23 334.02 747.40 C 292.99 705.86 260.29 648.23 240.00 581.27 L 240.00 315.00 C 278.66 315.00 310.00 283.66 310.00 245.00 L 672.00 245.00 Z M 493.18 814.65 C 562.41 797.29 612.75 773.67 644.21 743.98 L 645.17 743.07 C 684.63 705.21 716.04 649.26 735.65 582.59 L 736.00 581.38 L 736.00 320.76 L 735.77 320.75 C 698.76 317.74 669.26 288.24 666.25 251.23 L 666.23 251.00 L 315.76 251.00 L 315.75 251.23 C 312.74 288.24 283.24 317.74 246.23 320.75 L 246.00 320.76 L 246.00 580.38 L 246.34 581.51 C 266.16 645.95 297.67 701.57 337.08 741.95 L 338.29 743.18 C 366.66 771.90 418.09 795.88 492.51 814.81 L 493.18 814.65 Z" fill="#000000" fill-rule="nonzero" group-id="1" id="形状结合备份" node-id="11" stroke="none" target-height="576" target-width="502.00436" target-x="239.9971" target-y="245"></path><path d="M 491.00 412.00 C 525.79 412.00 554.00 440.21 554.00 475.00 C 554.00 501.68 537.42 524.48 514.00 533.67 L 514.00 609.50 C 514.00 621.37 504.37 631.00 492.50 631.00 C 480.63 631.00 471.00 621.37 471.00 609.50 L 471.00 534.76 C 446.01 526.40 428.00 502.80 428.00 475.00 C 428.00 440.21 456.21 412.00 491.00 412.00 Z" fill="#0076fc" fill-rule="evenodd" group-id="1" id="形状结合" node-id="12" stroke="none" target-height="219" target-width="126" target-x="428" target-y="412"></path><path d="M 491.00 412.00 C 525.79 412.00 554.00 440.21 554.00 475.00 C 554.00 501.68 537.42 524.48 514.00 533.67 L 514.00 609.50 C 514.00 621.37 504.37 631.00 492.50 631.00 C 480.63 631.00 471.00 621.37 471.00 609.50 L 471.00 534.76 C 446.01 526.40 428.00 502.80 428.00 475.00 C 428.00 440.21 456.21 412.00 491.00 412.00 Z M 491.00 418.00 C 459.52 418.00 434.00 443.52 434.00 475.00 C 434.00 499.70 449.85 521.36 472.90 529.07 L 477.00 530.44 L 477.00 534.76 L 477.00 609.50 C 477.00 618.06 483.94 625.00 492.50 625.00 C 501.06 625.00 508.00 618.06 508.00 609.50 L 508.00 533.67 L 508.00 529.58 L 511.81 528.08 C 533.46 519.59 548.00 498.65 548.00 475.00 C 548.00 443.52 522.48 418.00 491.00 418.00 Z" fill="#000000" fill-rule="nonzero" group-id="1" id="形状结合" node-id="13" stroke="none" target-height="219" target-width="126" target-x="428" target-y="412"></path><path d="M 714.00 151.00 C 714.00 158.73 707.73 165.00 700.00 165.00 C 692.27 165.00 686.00 158.73 686.00 151.00 C 686.00 143.27 692.27 137.00 700.00 137.00 C 707.73 137.00 714.00 143.27 714.00 151.00 Z" fill="#0076fc" fill-rule="evenodd" group-id="1" id="椭圆形" node-id="14" stroke="none" target-height="28" target-width="28" target-x="686" target-y="137"></path><path d="M 700.00 137.00 C 707.73 137.00 714.00 143.27 714.00 151.00 C 714.00 158.73 707.73 165.00 700.00 165.00 C 692.27 165.00 686.00 158.73 686.00 151.00 C 686.00 143.27 692.27 137.00 700.00 137.00 Z M 700.00 138.00 C 692.82 138.00 687.00 143.82 687.00 151.00 C 687.00 158.18 692.82 164.00 700.00 164.00 C 707.18 164.00 713.00 158.18 713.00 151.00 C 713.00 143.82 707.18 138.00 700.00 138.00 Z" fill="#0076fc" fill-rule="nonzero" group-id="1" id="椭圆形" node-id="15" stroke="none" target-height="28" target-width="28" target-x="686" target-y="137"></path><path d="M 210.50 204.00 C 217.40 204.00 223.00 209.60 223.00 216.50 C 223.00 223.40 217.40 229.00 210.50 229.00 C 203.60 229.00 198.00 223.40 198.00 216.50 C 198.00 209.60 203.60 204.00 210.50 204.00 Z M 210.50 207.00 C 205.25 207.00 201.00 211.25 201.00 216.50 C 201.00 221.75 205.25 226.00 210.50 226.00 C 215.75 226.00 220.00 221.75 220.00 216.50 C 220.00 211.25 215.75 207.00 210.50 207.00 Z" fill="#000000" fill-rule="nonzero" group-id="1" id="椭圆形" node-id="16" stroke="none" target-height="25" target-width="25" target-x="198" target-y="204"></path><path d="M 141.50 632.00 C 143.99 632.00 146.00 634.01 146.00 636.50 L 146.00 646.00 L 154.50 646.00 C 156.99 646.00 159.00 648.01 159.00 650.50 C 159.00 652.99 156.99 655.00 154.50 655.00 L 146.00 655.00 L 146.00 663.50 C 146.00 665.99 143.99 668.00 141.50 668.00 C 139.01 668.00 137.00 665.99 137.00 663.50 L 137.00 655.00 L 127.50 655.00 C 125.01 655.00 123.00 652.99 123.00 650.50 C 123.00 648.01 125.01 646.00 127.50 646.00 L 137.00 646.00 L 137.00 636.50 C 137.00 634.01 139.01 632.00 141.50 632.00 Z" fill="#0076fc" fill-rule="evenodd" group-id="1" id="形状结合" node-id="17" stroke="none" target-height="36" target-width="35.999992" target-x="123.00001" target-y="632"></path><path d="M 141.50 632.00 C 143.99 632.00 146.00 634.01 146.00 636.50 L 146.00 646.00 L 154.50 646.00 C 156.99 646.00 159.00 648.01 159.00 650.50 C 159.00 652.99 156.99 655.00 154.50 655.00 L 146.00 655.00 L 146.00 663.50 C 146.00 665.99 143.99 668.00 141.50 668.00 C 139.01 668.00 137.00 665.99 137.00 663.50 L 137.00 655.00 L 127.50 655.00 C 125.01 655.00 123.00 652.99 123.00 650.50 C 123.00 648.01 125.01 646.00 127.50 646.00 L 137.00 646.00 L 137.00 636.50 C 137.00 634.01 139.01 632.00 141.50 632.00 Z M 141.50 634.25 C 140.26 634.25 139.25 635.26 139.25 636.50 L 139.25 648.25 L 127.50 648.25 C 126.26 648.25 125.25 649.26 125.25 650.50 C 125.25 651.74 126.26 652.75 127.50 652.75 L 139.25 652.75 L 139.25 663.50 C 139.25 664.74 140.26 665.75 141.50 665.75 C 142.74 665.75 143.75 664.74 143.75 663.50 L 143.75 652.75 L 154.50 652.75 C 155.74 652.75 156.75 651.74 156.75 650.50 C 156.75 649.26 155.74 648.25 154.50 648.25 L 143.75 648.25 L 143.75 636.50 C 143.75 635.26 142.74 634.25 141.50 634.25 Z" fill="#0076fc" fill-rule="nonzero" group-id="1" id="形状结合" node-id="18" stroke="none" target-height="36" target-width="35.999992" target-x="123.00001" target-y="632"></path></g></svg>